<mxfile host="app.diagrams.net" modified="2023-02-09T14:32:46.116Z" agent="5.0 (Windows NT 10.0; Win64; x64) AppleWebKit/537.36 (KHTML, like Gecko) Chrome/109.0.0.0 Safari/537.36" etag="gAnnohk7JJePfO7mvLKI" version="20.8.15" type="github">
  <diagram name="退单返库" id="62-UqS-NsP2KTNmcT26w">
    <mxGraphModel dx="1230" dy="567" grid="1" gridSize="10" guides="1" tooltips="1" connect="1" arrows="1" fold="1" page="1" pageScale="1" pageWidth="827" pageHeight="1169" math="0" shadow="0">
      <root>
        <mxCell id="0" />
        <mxCell id="1" parent="0" />
        <mxCell id="eCOtvNv7dI-eB6DBGwbk-29" value="" style="rounded=0;whiteSpace=wrap;html=1;dashed=1;" vertex="1" parent="1">
          <mxGeometry x="130" y="125" width="160" height="325" as="geometry" />
        </mxCell>
        <mxCell id="eCOtvNv7dI-eB6DBGwbk-2" value="开始" style="rounded=1;whiteSpace=wrap;html=1;" vertex="1" parent="1">
          <mxGeometry x="160" y="140" width="100" height="30" as="geometry" />
        </mxCell>
        <mxCell id="eCOtvNv7dI-eB6DBGwbk-3" value="参数校验" style="rounded=0;whiteSpace=wrap;html=1;" vertex="1" parent="1">
          <mxGeometry x="160" y="200" width="100" height="30" as="geometry" />
        </mxCell>
        <mxCell id="eCOtvNv7dI-eB6DBGwbk-4" value="库存增加" style="rounded=0;whiteSpace=wrap;html=1;" vertex="1" parent="1">
          <mxGeometry x="160" y="260" width="100" height="30" as="geometry" />
        </mxCell>
        <mxCell id="eCOtvNv7dI-eB6DBGwbk-5" value="记录操作日志" style="rounded=0;whiteSpace=wrap;html=1;" vertex="1" parent="1">
          <mxGeometry x="160" y="320" width="100" height="30" as="geometry" />
        </mxCell>
        <mxCell id="eCOtvNv7dI-eB6DBGwbk-22" style="edgeStyle=orthogonalEdgeStyle;rounded=0;orthogonalLoop=1;jettySize=auto;html=1;entryX=0;entryY=0.5;entryDx=0;entryDy=0;" edge="1" parent="1" source="eCOtvNv7dI-eB6DBGwbk-7" target="eCOtvNv7dI-eB6DBGwbk-8">
          <mxGeometry relative="1" as="geometry" />
        </mxCell>
        <mxCell id="eCOtvNv7dI-eB6DBGwbk-7" value="完成" style="rounded=1;whiteSpace=wrap;html=1;" vertex="1" parent="1">
          <mxGeometry x="160" y="380" width="100" height="30" as="geometry" />
        </mxCell>
        <mxCell id="eCOtvNv7dI-eB6DBGwbk-23" style="edgeStyle=orthogonalEdgeStyle;rounded=0;orthogonalLoop=1;jettySize=auto;html=1;entryX=0;entryY=0.5;entryDx=0;entryDy=0;dashed=1;" edge="1" parent="1" source="eCOtvNv7dI-eB6DBGwbk-8" target="eCOtvNv7dI-eB6DBGwbk-9">
          <mxGeometry relative="1" as="geometry" />
        </mxCell>
        <mxCell id="eCOtvNv7dI-eB6DBGwbk-24" style="edgeStyle=orthogonalEdgeStyle;rounded=0;orthogonalLoop=1;jettySize=auto;html=1;entryX=0;entryY=0.5;entryDx=0;entryDy=0;dashed=1;" edge="1" parent="1" source="eCOtvNv7dI-eB6DBGwbk-8" target="eCOtvNv7dI-eB6DBGwbk-10">
          <mxGeometry relative="1" as="geometry" />
        </mxCell>
        <mxCell id="eCOtvNv7dI-eB6DBGwbk-25" style="edgeStyle=orthogonalEdgeStyle;rounded=0;orthogonalLoop=1;jettySize=auto;html=1;entryX=0;entryY=0.5;entryDx=0;entryDy=0;dashed=1;" edge="1" parent="1" source="eCOtvNv7dI-eB6DBGwbk-8" target="eCOtvNv7dI-eB6DBGwbk-11">
          <mxGeometry relative="1" as="geometry" />
        </mxCell>
        <mxCell id="eCOtvNv7dI-eB6DBGwbk-26" style="edgeStyle=orthogonalEdgeStyle;rounded=0;orthogonalLoop=1;jettySize=auto;html=1;entryX=0;entryY=0.5;entryDx=0;entryDy=0;dashed=1;" edge="1" parent="1" source="eCOtvNv7dI-eB6DBGwbk-8" target="eCOtvNv7dI-eB6DBGwbk-12">
          <mxGeometry relative="1" as="geometry" />
        </mxCell>
        <mxCell id="eCOtvNv7dI-eB6DBGwbk-8" value="退单返库事件" style="rounded=0;whiteSpace=wrap;html=1;" vertex="1" parent="1">
          <mxGeometry x="330" y="380" width="100" height="30" as="geometry" />
        </mxCell>
        <mxCell id="eCOtvNv7dI-eB6DBGwbk-9" value="回传电信" style="rounded=0;whiteSpace=wrap;html=1;" vertex="1" parent="1">
          <mxGeometry x="530" y="290" width="100" height="30" as="geometry" />
        </mxCell>
        <mxCell id="eCOtvNv7dI-eB6DBGwbk-10" value="回传移动" style="rounded=0;whiteSpace=wrap;html=1;" vertex="1" parent="1">
          <mxGeometry x="530" y="360" width="100" height="30" as="geometry" />
        </mxCell>
        <mxCell id="eCOtvNv7dI-eB6DBGwbk-11" value="回传联通" style="rounded=0;whiteSpace=wrap;html=1;" vertex="1" parent="1">
          <mxGeometry x="530" y="420" width="100" height="30" as="geometry" />
        </mxCell>
        <mxCell id="eCOtvNv7dI-eB6DBGwbk-12" value="回传小米" style="rounded=0;whiteSpace=wrap;html=1;" vertex="1" parent="1">
          <mxGeometry x="530" y="480" width="100" height="30" as="geometry" />
        </mxCell>
        <mxCell id="eCOtvNv7dI-eB6DBGwbk-16" value="" style="endArrow=classic;html=1;rounded=0;exitX=0.5;exitY=1;exitDx=0;exitDy=0;entryX=0.5;entryY=0;entryDx=0;entryDy=0;" edge="1" parent="1" source="eCOtvNv7dI-eB6DBGwbk-2" target="eCOtvNv7dI-eB6DBGwbk-3">
          <mxGeometry width="50" height="50" relative="1" as="geometry">
            <mxPoint x="310" y="210" as="sourcePoint" />
            <mxPoint x="360" y="160" as="targetPoint" />
          </mxGeometry>
        </mxCell>
        <mxCell id="eCOtvNv7dI-eB6DBGwbk-18" value="" style="endArrow=classic;html=1;rounded=0;exitX=0.5;exitY=1;exitDx=0;exitDy=0;entryX=0.5;entryY=0;entryDx=0;entryDy=0;" edge="1" parent="1" source="eCOtvNv7dI-eB6DBGwbk-3" target="eCOtvNv7dI-eB6DBGwbk-4">
          <mxGeometry width="50" height="50" relative="1" as="geometry">
            <mxPoint x="300" y="260" as="sourcePoint" />
            <mxPoint x="350" y="210" as="targetPoint" />
          </mxGeometry>
        </mxCell>
        <mxCell id="eCOtvNv7dI-eB6DBGwbk-20" value="" style="endArrow=classic;html=1;rounded=0;exitX=0.5;exitY=1;exitDx=0;exitDy=0;entryX=0.5;entryY=0;entryDx=0;entryDy=0;" edge="1" parent="1" source="eCOtvNv7dI-eB6DBGwbk-4" target="eCOtvNv7dI-eB6DBGwbk-5">
          <mxGeometry width="50" height="50" relative="1" as="geometry">
            <mxPoint x="220" y="240" as="sourcePoint" />
            <mxPoint x="220" y="270" as="targetPoint" />
          </mxGeometry>
        </mxCell>
        <mxCell id="eCOtvNv7dI-eB6DBGwbk-21" value="" style="endArrow=classic;html=1;rounded=0;exitX=0.5;exitY=1;exitDx=0;exitDy=0;entryX=0.5;entryY=0;entryDx=0;entryDy=0;" edge="1" parent="1" source="eCOtvNv7dI-eB6DBGwbk-5" target="eCOtvNv7dI-eB6DBGwbk-7">
          <mxGeometry width="50" height="50" relative="1" as="geometry">
            <mxPoint x="230" y="250" as="sourcePoint" />
            <mxPoint x="230" y="280" as="targetPoint" />
          </mxGeometry>
        </mxCell>
        <mxCell id="eCOtvNv7dI-eB6DBGwbk-27" value="发布事件" style="text;html=1;strokeColor=none;fillColor=none;align=center;verticalAlign=middle;whiteSpace=wrap;rounded=0;" vertex="1" parent="1">
          <mxGeometry x="267" y="372" width="50" height="20" as="geometry" />
        </mxCell>
        <mxCell id="eCOtvNv7dI-eB6DBGwbk-28" value="监听" style="text;html=1;strokeColor=none;fillColor=none;align=center;verticalAlign=middle;whiteSpace=wrap;rounded=0;" vertex="1" parent="1">
          <mxGeometry x="430" y="372" width="50" height="20" as="geometry" />
        </mxCell>
        <mxCell id="eCOtvNv7dI-eB6DBGwbk-30" value="&lt;b&gt;主业务流程&lt;/b&gt;" style="text;html=1;strokeColor=none;fillColor=none;align=center;verticalAlign=middle;whiteSpace=wrap;rounded=0;" vertex="1" parent="1">
          <mxGeometry x="170" y="420" width="70" height="30" as="geometry" />
        </mxCell>
      </root>
    </mxGraphModel>
  </diagram>
</mxfile>
